# xmcd
#
# Track frame offsets: 
#        180
#        37311
#        53516
#        69663
#        96175
#        126332
#        147497
#        173520
#        202891
#        223239
#        236247
#        256901
#        269147
#        287220
#
# Disc length: 4174 seconds
#
# Revision: 2
# Processed by: cddbd v1.5.2PL0 Copyright (c) Steve Scherf et al.
# Submitted via: ExactAudioCopy v0.99pb3
#
DISCID=e6104c0e
DTITLE=Various Artist - The Best of Lounge Music II- [CD1)
DYEAR=2003
DGENRE=Lounge
TTITLE0=The Jerk House Connection - Soulleiado
TTITLE1=Nemo - Darkest Day
TTITLE2=Nova Banda - Aguas de Marco
TTITLE3=Dzihan and Kamien - Just You and I
TTITLE4=Anima Sound System - 68'
TTITLE5=Bonga - Balumukeno
TTITLE6=Jaffa - Sneakin'
TTITLE7=Llorca - My Precious Thing
TTITLE8=Andy Caldwell - Quiet Nights
TTITLE9=Vaya Con Dios - Nah Neh Nah
TTITLE10=Voo Doo Phunk - The Party
TTITLE11=Mr Nasguile - Listen and Smoke
TTITLE12=Karen Ramirez - Troubled Girl
TTITLE13=Rahil - The Lost Dream
EXTD=YEAR: 2003
EXTT0=
EXTT1=
EXTT2=
EXTT3=
EXTT4=
EXTT5=
EXTT6=
EXTT7=
EXTT8=
EXTT9=
EXTT10=
EXTT11=
EXTT12=
EXTT13=
PLAYORDER=
